<?xml version="1.0" standalone="no"?>
<!DOCTYPE svg PUBLIC "-//W3C//DTD SVG 20010904//EN"
 "http://www.w3.org/TR/2001/REC-SVG-20010904/DTD/svg10.dtd">
<svg version="1.0" xmlns="http://www.w3.org/2000/svg"
 width="2000.000000pt" height="2000.000000pt" viewBox="0 0 2000.000000 2000.000000"
 preserveAspectRatio="xMidYMid meet">
<metadata>
Created by potrace 1.14, written by Peter Selinger 2001-2017
</metadata>
<g transform="translate(0.000000,2000.000000) scale(0.100000,-0.100000)"
fill="#000000" stroke="none">
<path d="M15645 16214 c-750 -73 -1379 -271 -1912 -602 -669 -416 -1113 -990
-1308 -1692 -136 -489 -160 -1103 -64 -1627 l11 -63 1039 0 c572 0 1039 2
1039 4 0 2 -13 32 -29 67 -102 228 -151 536 -130 833 54 772 623 1272 1563
1371 187 19 588 20 806 0 681 -60 1397 -242 2221 -566 124 -49 230 -89 236
-89 6 0 18 17 26 38 134 336 618 1584 616 1586 -12 9 -324 136 -480 195 -795
300 -1588 481 -2392 546 -246 20 -1036 19 -1242 -1z"/>
<path d="M67 16063 c-4 -3 -7 -390 -7 -860 l0 -853 1785 0 1785 0 0 -1060 0
-1060 995 0 995 0 0 1060 0 1060 1785 0 1785 0 0 860 0 860 -4558 0 c-2507 0
-4562 -3 -4565 -7z"/>
<path d="M3940 10410 l0 -1320 200 0 200 0 0 1320 0 1320 -200 0 -200 0 0
-1320z"/>
<path d="M4900 10410 l0 -1320 205 0 205 0 0 1320 0 1320 -205 0 -205 0 0
-1320z"/>
<path d="M7872 10413 l3 -1318 203 -3 202 -2 0 1320 0 1320 -205 0 -205 0 2
-1317z"/>
<path d="M15670 10410 l0 -1320 203 2 202 3 5 580 c6 557 7 583 28 658 68 244
212 346 472 335 206 -9 305 -109 331 -333 5 -44 9 -342 9 -662 l0 -583 200 0
201 0 -3 708 c-4 787 -1 751 -74 901 -48 97 -128 177 -225 225 -106 51 -176
67 -329 73 -239 10 -394 -40 -520 -166 -37 -36 -73 -77 -82 -91 -9 -14 -19
-22 -23 -19 -3 4 -2 75 4 159 6 83 11 309 11 501 l0 349 -205 0 -205 0 0
-1320z"/>
<path d="M17999 11677 c-102 -29 -149 -95 -149 -213 1 -145 78 -224 220 -224
91 0 170 43 205 111 40 77 23 219 -32 271 -61 56 -158 79 -244 55z"/>
<path d="M10409 11600 c-319 -40 -540 -198 -626 -447 -24 -69 -27 -93 -27
-208 0 -148 15 -218 69 -324 91 -177 232 -287 537 -418 185 -79 346 -161 411
-209 54 -39 102 -108 118 -169 19 -68 7 -185 -24 -238 -53 -91 -144 -145 -279
-167 -137 -22 -360 -5 -529 39 -93 25 -241 77 -291 102 -21 11 -40 19 -43 19
-3 0 -5 -88 -5 -195 l0 -194 48 -21 c141 -63 330 -99 562 -107 264 -8 436 19
595 96 255 122 385 326 385 606 0 235 -92 411 -284 544 -79 54 -224 126 -463
231 -229 99 -334 175 -375 267 -28 65 -34 158 -13 229 22 78 94 151 180 185
53 21 76 23 205 24 168 0 253 -15 430 -77 63 -22 124 -42 136 -45 19 -4 27 11
82 152 34 86 62 162 62 169 0 13 -163 75 -280 106 -179 47 -434 69 -581 50z"/>
<path d="M10 11395 l0 -175 365 0 365 0 0 -1065 0 -1065 205 0 205 0 0 1065 0
1065 365 0 365 0 0 175 0 175 -935 0 -935 0 0 -175z"/>
<path d="M2485 10994 c-82 -13 -198 -39 -269 -61 -76 -24 -226 -88 -226 -96 0
-5 118 -266 126 -279 3 -4 22 -1 42 8 194 85 334 119 487 119 105 0 127 -3
173 -24 67 -30 127 -97 148 -165 8 -28 18 -96 21 -152 l6 -101 -214 -7 c-481
-16 -702 -80 -855 -248 -87 -95 -124 -202 -124 -353 1 -309 151 -505 430 -561
66 -13 113 -15 215 -11 228 11 329 52 474 194 52 50 98 90 102 87 4 -2 10 -16
13 -31 4 -16 21 -72 37 -125 l30 -98 145 0 145 0 -3 713 c-3 640 -5 718 -21
772 -62 213 -191 337 -414 396 -63 17 -113 22 -258 24 -99 2 -193 1 -210 -1z
m502 -1143 c-7 -144 -28 -225 -77 -296 -84 -122 -213 -180 -401 -180 -98 0
-110 2 -164 30 -82 42 -116 97 -123 198 -9 143 43 239 161 296 113 56 245 77
491 80 l119 1 -6 -129z"/>
<path d="M6370 10985 c-102 -16 -238 -55 -335 -96 -121 -50 -117 -35 -45 -195
35 -76 64 -140 65 -142 1 -1 24 7 51 19 95 42 248 90 332 104 162 28 279 16
359 -38 86 -58 117 -128 128 -294 l7 -100 -213 -7 c-344 -12 -517 -41 -674
-115 -150 -71 -242 -171 -286 -310 -26 -83 -28 -264 -4 -356 67 -259 267 -395
580 -395 141 0 255 23 355 72 69 33 102 59 174 130 49 49 91 87 93 84 3 -3 22
-60 42 -128 l38 -123 147 -3 147 -3 -3 703 c-4 681 -5 705 -25 779 -69 248
-224 375 -510 418 -96 15 -318 12 -423 -4z m548 -1147 c-4 -115 -9 -154 -26
-197 -31 -78 -70 -129 -136 -178 -84 -62 -174 -88 -306 -88 -93 0 -112 3 -161
26 -98 46 -134 119 -127 253 13 231 187 319 647 325 l113 1 -4 -142z"/>
<path d="M12295 10994 c-82 -13 -198 -39 -269 -61 -73 -23 -226 -87 -226 -95
0 -8 122 -273 128 -279 4 -4 51 11 105 33 168 68 274 91 417 92 110 1 131 -2
175 -22 117 -54 163 -138 172 -313 l6 -106 -214 -7 c-448 -15 -670 -73 -823
-216 -107 -101 -156 -221 -156 -385 1 -187 55 -331 162 -431 118 -108 262
-151 483 -141 226 10 329 52 475 194 52 51 98 89 101 85 4 -4 19 -47 34 -97
14 -49 31 -105 36 -122 l11 -33 144 0 145 0 -3 713 c-3 643 -5 718 -21 772
-63 216 -189 336 -414 396 -63 17 -113 22 -258 24 -99 2 -193 1 -210 -1z m502
-1141 c-9 -189 -44 -283 -139 -369 -146 -132 -449 -152 -561 -38 -44 44 -60
83 -65 160 -17 261 169 367 652 373 l119 1 -6 -127z"/>
<path d="M14168 10984 c-297 -53 -477 -232 -518 -513 -30 -203 24 -393 149
-524 31 -33 80 -73 109 -89 28 -17 52 -31 52 -33 0 -1 -19 -15 -41 -30 -106
-70 -169 -152 -184 -242 -15 -95 36 -214 122 -279 41 -32 45 -44 13 -44 -35 0
-178 -79 -232 -129 -140 -128 -176 -347 -87 -529 116 -237 459 -346 949 -301
525 47 810 278 810 654 0 258 -124 420 -375 490 -47 14 -129 19 -385 25 -188
4 -343 12 -367 19 -23 6 -56 23 -73 37 -25 22 -30 33 -30 71 0 59 24 107 72
146 l40 32 146 -4 c273 -5 474 60 611 197 115 116 163 240 164 417 0 112 -17
188 -64 274 -16 30 -28 56 -26 57 1 1 71 15 155 30 l152 27 0 114 0 113 -318
0 c-232 0 -346 4 -418 15 -121 18 -323 18 -426 -1z m327 -259 c149 -38 225
-158 225 -355 0 -143 -46 -257 -125 -312 -59 -41 -153 -62 -249 -55 -153 10
-252 86 -292 225 -24 81 -16 259 15 327 67 150 237 218 426 170z m212 -1635
c108 -15 179 -51 210 -109 48 -91 20 -216 -65 -293 -89 -80 -216 -122 -422
-139 -268 -23 -455 26 -530 137 -19 29 -26 53 -28 110 -5 91 9 135 61 192 46
49 93 76 170 97 64 17 485 20 604 5z"/>
<path d="M19659 10990 c-161 -40 -307 -146 -404 -293 -21 -31 -41 -57 -45 -57
-3 0 -17 69 -30 153 -12 83 -25 158 -27 165 -4 9 -46 12 -164 12 l-159 0 0
-940 0 -940 205 0 205 0 0 525 c0 590 3 626 67 748 42 80 136 172 215 211 102
50 230 66 357 46 35 -6 65 -10 66 -8 2 2 12 85 22 186 14 128 16 185 9 190
-17 10 -277 12 -317 2z"/>
<path d="M17870 10030 l0 -940 200 0 200 0 0 940 0 940 -200 0 -200 0 0 -940z"/>
<path d="M3630 5840 l0 -1920 995 0 995 0 0 1920 0 1920 -995 0 -995 0 0
-1920z"/>
<path d="M17829 7723 c63 -124 118 -361 130 -555 27 -469 -92 -822 -379 -1121
-275 -288 -637 -460 -1145 -547 -281 -47 -397 -55 -800 -54 -471 1 -773 26
-1222 104 -703 122 -1463 364 -2137 679 -59 28 -110 51 -112 51 -2 0 -3 -426
-2 -946 l3 -946 109 -50 c642 -293 1365 -464 2341 -554 278 -26 1292 -32 1572
-10 1412 112 2483 607 3126 1444 339 441 537 960 603 1582 27 252 21 712 -13
923 l-6 37 -1043 0 -1044 0 19 -37z"/>
</g>
</svg>
